0
SECTION
  2
HEADER
  9
$ACADVER
  1
AC1021
  9
$HANDSEED
  5
FFFF
  9
$DWGCODEPAGE
  3
ANSI_1252
  9
$INSUNITS
 70
     4
  9
$INSUNITSDEFTARGET
 70
     4
  9
$MEASUREMENT
 70
     1
  9
$LUPREC
 70
     4
  9
$ACADVER
  1
AC1021
  9
$HANDSEED
  5
FFFF
  9
$DWGCODEPAGE
  3
ANSI_1252
  0
ENDSEC
  2
TABLES
  0
TABLE
  2
LAYER
  70
     1
  0
LAYER
  2
0
  70
     0
  62
     7
  6
Continuous
  0
ENDTAB
  0
TABLE
  2
STYLE
  70
     1
  0
STYLE
  2
Standard
  70
     0
  40
0.0
  41
1.0
  50
0.0
  71
0
  42
0.2
  3
txt
  4
  0
ENDTAB
  0
TABLE
  2
VIEW
  70
     1
  0
ENDTAB
  0
TABLE
  2
UCS
  70
     1
  0
ENDTAB
  0
TABLE
  2
APPID
  70
     1
  0
ENDTAB
  0
TABLE
  2
DIMSTYLE
  70
     1
  0
ENDTAB
  0
TABLE
  2
BLOCK_RECORD
  70
     1
  0
BLOCK_RECORD
  2
*Model_Space
  70
     1
  0
ENDTAB
  0
ENDSEC
  2
ENTITIES
  0
CIRCLE
  5
100
  8
0
  6
Continuous
 10
10.0
 20
10.0
 40
2.0
  0
CIRCLE
  5
101
  8
0
  6
Continuous
 10
190.0
 20
10.0
 40
2.0
  0
CIRCLE
  5
102
  8
0
  6
Continuous
 10
10.0
 20
90.0
 40
2.0
  0
CIRCLE
  5
103
  8
0
  6
Continuous
 10
190.0
 20
90.0
 40
2.0
  0
CIRCLE
  5
104
  8
0
  6
Continuous
 10
100.0
 20
50.0
 40
3.0
  0
CIRCLE
  5
105
  8
0
  6
Continuous
 10
150.0
 20
50.0
 40
3.0
  0
CIRCLE
  5
106
  8
0
  6
Continuous
 10
50.0
 20
50.0
 40
3.0
  0
CIRCLE
  5
107
  8
0
  6
Continuous
 10
100.0
 20
25.0
 40
2.0
  0
CIRCLE
  5
108
  8
0
  6
Continuous
 10
100.0
 20
75.0
 40
2.0
  0
CIRCLE
  5
109
  8
0
  6
Continuous
 10
25.0
 20
25.0
 40
2.0
  0
CIRCLE
  5
110
  8
0
  6
Continuous
 10
175.0
 20
25.0
 40
2.0
  0
CIRCLE
  5
111
  8
0
  6
Continuous
 10
25.0
 20
75.0
 40
2.0
  0
CIRCLE
  5
112
  8
0
  6
Continuous
 10
175.0
 20
75.0
 40
2.0
  0
CIRCLE
  5
113
  8
0
  6
Continuous
 10
50.0
 20
20.0
 40
4.0
  0
CIRCLE
  5
114
  8
0
  6
Continuous
 10
150.0
 20
20.0
 40
4.0
  0
CIRCLE
  5
115
  8
0
  6
Continuous
 10
50.0
 20
80.0
 40
4.0
  0
CIRCLE
  5
116
  8
0
  6
Continuous
 10
150.0
 20
80.0
 40
4.0
  0
CIRCLE
  5
117
  8
0
  6
Continuous
 10
100.0
 20
15.0
 40
5.0
  0
CIRCLE
  5
118
  8
0
  6
Continuous
 10
100.0
 20
85.0
 40
5.0
  0
TEXT
  5
119
  8
0
  6
Continuous
 10
10.0
 20
10.0
 40
3.0
  1
M3
  0
TEXT
  5
120
  8
0
  6
Continuous
 10
190.0
 20
10.0
 40
3.0
  1
M3
  0
TEXT
  5
121
  8
0
  6
Continuous
 10
10.0
 20
90.0
 40
3.0
  1
M3
  0
TEXT
  5
122
  8
0
  6
Continuous
 10
190.0
 20
90.0
 40
3.0
  1
M3
  0
TEXT
  5
123
  8
0
  6
Continuous
 10
95.0
 20
50.0
 40
2.0
  1
M3 PCB
  0
TEXT
  5
124
  8
0
  6
Continuous
 10
145.0
 20
50.0
 40
2.0
  1
M3 PCB
  0
TEXT
  5
125
  8
0
  6
Continuous
 10
45.0
 20
50.0
  40
2.0
  1
M3 PCB
  0
TEXT
  5
126
  8
0
  6
Continuous
  10
45.0
 20
50.0
 40
2.0
  1
M3 PCB
  0
TEXT
  5
127
  8
0
  6
Continuous
 10
20.0
 20
25.0
 40
2.0
  1
M2.5
  0
TEXT
  5
128
  8
0
  6
Continuous
 10
180.0
 20
25.0
 40
2.0
  1
M2.5
  0
TEXT
  5
129
  8
0
  6
Continuous
 10
20.0
 20
75.0
 40
2.0
  1
M2.5
  0
TEXT
  5
130
  8
0
  6
Continuous
 10
180.0
 20
75.0
 40
2.0
  1
M2.5
  0
TEXT
  5
131
  8
0
  6
Continuous
 10
50.0
 20
20.0
 40
2.0
  1
M4
  0
TEXT
  5
132
  8
0
  6
Continuous
 10
150.0
 20
20.0
 40
2.0
  1
M4
  0
TEXT
  5
133
  8
0
  6
Continuous
 10
50.0
 20
80.0
 40
2.0
  1
M4
  0
TEXT
  5
134
  8
0
  6
Continuous
 10
150.0
 20
80.0
 40
2.0
  1
M4
  0
TEXT
  5
135
  8
0
  6
Continuous
 10
90.0
 20
15.0
 40
2.0
  1
M5 Display
  0
TEXT
  5
136
  8
0
  6
Continuous
 10
90.0
 20
85.0
 40
2.0
  1
M5 Display
  0
TEXT
  5
137
  8
0
  6
Continuous
 10
110.0
 20
50.0
 40
2.0
  1
M5 Encoder
  0
TEXT
  5
138
  8
0
  6
Continuous
 10
110.0
 20
50.0
 40
2.0
  1
M5 Encoder
  0
ENDSEC
  0
EOF
